<svg xmlns="http://www.w3.org/2000/svg" xmlns:xlink="http://www.w3.org/1999/xlink" width="200" zoomAndPan="magnify" viewBox="0 0 150 149.999998" height="200" preserveAspectRatio="xMidYMid meet" version="1.0"><defs><g/><clipPath id="2e25009dee"><path d="M 78 34.128906 L 87 34.128906 L 87 36 L 78 36 Z M 78 34.128906 " clip-rule="nonzero"/></clipPath><clipPath id="21e6bedc1e"><path d="M 68 34.128906 L 78 34.128906 L 78 36 L 68 36 Z M 68 34.128906 " clip-rule="nonzero"/></clipPath><clipPath id="987442915a"><path d="M 73 34.128906 L 82 34.128906 L 82 38 L 73 38 Z M 73 34.128906 " clip-rule="nonzero"/></clipPath><clipPath id="e64181e894"><path d="M 34.945312 65 L 37 65 L 37 74 L 34.945312 74 Z M 34.945312 65 " clip-rule="nonzero"/></clipPath><clipPath id="6c0eafc8d9"><path d="M 34.945312 71 L 36 71 L 36 80 L 34.945312 80 Z M 34.945312 71 " clip-rule="nonzero"/></clipPath><clipPath id="375128c868"><path d="M 42 94 L 49 94 L 49 99.378906 L 42 99.378906 Z M 42 94 " clip-rule="nonzero"/></clipPath><clipPath id="fa990f7248"><path d="M 114 59 L 115.195312 59 L 115.195312 62 L 114 62 Z M 114 59 " clip-rule="nonzero"/></clipPath></defs><path fill="#9cff1e" d="M 58.503906 38.40625 C 58.574219 38.179688 58.675781 38.035156 58.8125 37.972656 L 60.636719 37.175781 C 62.347656 36.558594 64.65625 35.789062 66.410156 35.296875 L 67.273438 35.097656 C 67.128906 35.15625 67.015625 35.300781 66.945312 35.535156 C 65.628906 35.992188 63.882812 36.617188 62.601562 37.160156 C 61.363281 37.5 59.710938 37.972656 58.503906 38.40625 " fill-opacity="1" fill-rule="nonzero"/><path fill="#9cff1e" d="M 49.957031 43.730469 C 50.007812 43.558594 50.082031 43.4375 50.171875 43.363281 L 50.203125 43.339844 C 53.652344 40.765625 53.71875 40.714844 55.65625 39.601562 L 57.570312 38.574219 C 57.441406 38.640625 57.339844 38.78125 57.273438 39 C 56.085938 39.757812 54.511719 40.777344 53.375 41.609375 C 52.332031 42.21875 50.949219 43.042969 49.957031 43.730469 " fill-opacity="1" fill-rule="nonzero"/><path fill="#9cff1e" d="M 113.527344 57.96875 L 113.5625 57.992188 L 114.363281 59.917969 L 113.527344 57.96875 " fill-opacity="1" fill-rule="nonzero"/><path fill="#9cff1e" d="M 110.929688 53.441406 C 110.945312 53.398438 110.964844 53.375 110.988281 53.363281 C 111.667969 54.511719 112.5625 56.050781 113.175781 57.234375 L 114.363281 59.917969 L 113.128906 57.296875 C 112.488281 56.128906 111.625 54.578125 110.929688 53.441406 " fill-opacity="1" fill-rule="nonzero"/><path fill="#9cff1e" d="M 104.558594 45.835938 C 104.585938 45.738281 104.632812 45.675781 104.691406 45.652344 C 105.617188 46.570312 106.839844 47.804688 107.707031 48.777344 C 108.488281 49.800781 109.523438 51.179688 110.253906 52.242188 C 110.222656 52.253906 110.199219 52.285156 110.183594 52.335938 C 109.402344 51.332031 108.347656 50.003906 107.5 49.050781 C 106.632812 48.074219 105.46875 46.773438 104.558594 45.835938 " fill-opacity="1" fill-rule="nonzero"/><path fill="#9cff1e" d="M 96.703125 40.046875 C 96.75 39.902344 96.816406 39.8125 96.90625 39.777344 C 98.019531 40.445312 99.5 41.347656 100.570312 42.078125 C 101.535156 42.867188 102.816406 43.925781 103.734375 44.765625 C 103.671875 44.789062 103.625 44.851562 103.589844 44.957031 C 102.597656 44.210938 101.261719 43.226562 100.222656 42.546875 C 99.179688 41.78125 97.78125 40.765625 96.703125 40.046875 " fill-opacity="1" fill-rule="nonzero"/><path fill="#9cff1e" d="M 87.769531 36.246094 C 87.824219 36.058594 87.910156 35.945312 88.027344 35.902344 C 89.277344 36.296875 90.941406 36.839844 92.164062 37.3125 C 93.257812 37.839844 94.71875 38.554688 95.78125 39.144531 C 95.6875 39.179688 95.617188 39.273438 95.570312 39.425781 C 94.417969 38.953125 92.875 38.335938 91.691406 37.945312 C 90.523438 37.414062 88.960938 36.714844 87.769531 36.246094 " fill-opacity="1" fill-rule="nonzero"/><g clip-path="url(#2e25009dee)"><path fill="#9cff1e" d="M 78.152344 34.597656 C 78.21875 34.378906 78.320312 34.246094 78.453125 34.195312 C 79.75 34.296875 81.476562 34.441406 82.761719 34.625 L 82.941406 34.652344 C 84.101562 34.894531 85.644531 35.230469 86.789062 35.546875 C 86.671875 35.589844 86.582031 35.710938 86.523438 35.898438 C 85.261719 35.71875 83.578125 35.496094 82.308594 35.402344 C 81.070312 35.136719 79.410156 34.789062 78.152344 34.597656 " fill-opacity="1" fill-rule="nonzero"/></g><g clip-path="url(#21e6bedc1e)"><path fill="#9cff1e" d="M 68.257812 35.265625 C 68.328125 35.03125 68.4375 34.886719 68.582031 34.828125 L 70.289062 34.535156 C 71.28125 34.429688 72.601562 34.253906 73.597656 34.1875 L 74.816406 34.128906 L 77.152344 34.140625 C 77.015625 34.195312 76.914062 34.328125 76.847656 34.546875 C 75.535156 34.679688 73.78125 34.867188 72.480469 35.085938 C 71.210938 35.109375 69.519531 35.15625 68.257812 35.265625 " fill-opacity="1" fill-rule="nonzero"/></g><path fill="#9cff1e" d="M 43.171875 50.738281 C 43.203125 50.636719 43.246094 50.554688 43.292969 50.488281 C 43.953125 49.683594 44.804688 48.589844 45.5 47.8125 C 46.570312 46.710938 48.015625 45.253906 49.152344 44.21875 C 49.070312 44.292969 49 44.410156 48.953125 44.570312 C 47.988281 45.550781 46.714844 46.871094 45.8125 47.90625 C 45 48.734375 43.921875 49.851562 43.171875 50.738281 " fill-opacity="1" fill-rule="nonzero"/><path fill="#9cff1e" d="M 113.488281 58.101562 C 113.484375 58.070312 113.484375 58.046875 113.484375 58.027344 L 114.363281 59.917969 L 113.488281 58.101562 " fill-opacity="1" fill-rule="nonzero"/><path fill="#9cff1e" d="M 108.023438 50.132812 C 108.003906 49.964844 107.996094 49.828125 108 49.71875 C 108.808594 50.691406 109.875 52 110.621094 53.023438 C 111.3125 54.15625 112.230469 55.667969 112.871094 56.832031 C 112.867188 56.863281 112.871094 56.902344 112.875 56.949219 C 112.230469 55.917969 111.363281 54.546875 110.648438 53.5625 C 109.875 52.523438 108.523438 51.328125 108.023438 50.132812 " fill-opacity="1" fill-rule="nonzero"/><path fill="#9cff1e" d="M 100.871094 43.851562 C 100.839844 43.5625 100.828125 43.320312 100.835938 43.128906 C 101.84375 43.832031 103.183594 44.785156 104.144531 45.554688 C 105.058594 46.496094 106.269531 47.757812 107.136719 48.742188 C 107.132812 48.863281 107.140625 49.015625 107.160156 49.199219 C 106.292969 48.4375 105.128906 47.433594 104.207031 46.746094 C 103.21875 45.863281 101.503906 45.015625 100.871094 43.851562 " fill-opacity="1" fill-rule="nonzero"/><path fill="#9cff1e" d="M 92.433594 39.40625 C 92.390625 39.011719 92.371094 38.683594 92.382812 38.417969 C 93.542969 38.839844 95.085938 39.414062 96.214844 39.910156 C 97.292969 40.636719 98.730469 41.617188 99.777344 42.390625 C 99.769531 42.59375 99.78125 42.847656 99.816406 43.152344 C 98.773438 42.679688 97.378906 42.058594 96.304688 41.671875 C 95.152344 40.976562 93.613281 40.054688 92.433594 39.40625 " fill-opacity="1" fill-rule="nonzero"/><path fill="#9cff1e" d="M 83.113281 36.949219 C 83.058594 36.46875 83.039062 36.070312 83.050781 35.75 C 84.304688 35.871094 85.980469 36.046875 87.222656 36.253906 C 88.421875 36.742188 90.015625 37.398438 91.1875 37.945312 C 91.175781 38.214844 91.191406 38.554688 91.238281 38.960938 C 90.074219 38.785156 88.511719 38.566406 87.335938 38.484375 C 86.078125 38.003906 84.394531 37.371094 83.113281 36.949219 " fill-opacity="1" fill-rule="nonzero"/><g clip-path="url(#987442915a)"><path fill="#9cff1e" d="M 73.308594 36.625 C 73.246094 36.085938 73.226562 35.640625 73.242188 35.28125 C 74.535156 35.09375 76.269531 34.851562 77.578125 34.753906 C 78.839844 34.96875 80.519531 35.269531 81.769531 35.558594 C 81.757812 35.882812 81.777344 36.289062 81.832031 36.777344 C 80.589844 36.910156 78.9375 37.105469 77.710938 37.332031 C 76.394531 37.09375 74.636719 36.789062 73.308594 36.625 " fill-opacity="1" fill-rule="nonzero"/></g><path fill="#9cff1e" d="M 63.421875 38.585938 C 63.355469 38.019531 63.332031 37.550781 63.347656 37.175781 C 64.632812 36.660156 66.355469 35.988281 67.675781 35.566406 C 68.945312 35.484375 70.648438 35.390625 71.921875 35.394531 C 71.90625 35.753906 71.929688 36.207031 71.992188 36.75 C 70.726562 37.199219 69.046875 37.816406 67.816406 38.347656 C 66.496094 38.390625 64.734375 38.457031 63.421875 38.585938 " fill-opacity="1" fill-rule="nonzero"/><path fill="#9cff1e" d="M 54.09375 42.847656 C 54.03125 42.289062 54.007812 41.824219 54.023438 41.453125 C 55.183594 40.644531 56.738281 39.574219 57.949219 38.839844 C 59.167969 38.441406 60.804688 37.921875 62.050781 37.609375 C 62.035156 37.988281 62.058594 38.460938 62.121094 39.023438 C 60.898438 39.792969 59.269531 40.828125 58.09375 41.671875 C 56.886719 41.996094 55.277344 42.4375 54.09375 42.847656 " fill-opacity="1" fill-rule="nonzero"/><path fill="#9cff1e" d="M 46.390625 48.898438 C 46.332031 48.378906 46.308594 47.949219 46.324219 47.601562 C 47.253906 46.578125 48.507812 45.222656 49.496094 44.257812 C 50.5 43.605469 51.851562 42.746094 52.902344 42.171875 C 52.886719 42.539062 52.910156 43.003906 52.972656 43.558594 C 51.949219 44.558594 50.597656 45.902344 49.636719 46.960938 C 48.644531 47.515625 47.332031 48.265625 46.390625 48.898438 " fill-opacity="1" fill-rule="nonzero"/><path fill="#9cff1e" d="M 40.527344 56.339844 C 40.476562 55.886719 40.457031 55.511719 40.472656 55.210938 C 41.152344 54.03125 42.070312 52.46875 42.816406 51.332031 C 43.582031 50.472656 44.609375 49.332031 45.4375 48.535156 C 45.421875 48.878906 45.445312 49.304688 45.503906 49.816406 C 44.714844 50.984375 43.671875 52.546875 42.941406 53.753906 C 42.195312 54.507812 41.207031 55.523438 40.527344 56.339844 " fill-opacity="1" fill-rule="nonzero"/><path fill="#9cff1e" d="M 36.675781 64.785156 C 36.636719 64.425781 36.621094 64.125 36.628906 63.886719 C 37.039062 62.613281 37.597656 60.914062 38.078125 59.664062 C 38.582031 58.644531 39.265625 57.289062 39.84375 56.308594 C 39.832031 56.601562 39.847656 56.96875 39.898438 57.410156 C 39.363281 58.679688 38.65625 60.382812 38.179688 61.675781 C 37.703125 62.597656 37.078125 63.828125 36.675781 64.785156 " fill-opacity="1" fill-rule="nonzero"/><g clip-path="url(#e64181e894)"><path fill="#9cff1e" d="M 34.992188 73.859375 C 34.964844 73.613281 34.957031 73.40625 34.960938 73.242188 L 34.988281 72.808594 L 35.164062 70.847656 L 35.519531 68.363281 C 35.734375 67.382812 36.011719 66.066406 36.28125 65.097656 C 36.269531 65.328125 36.285156 65.617188 36.324219 65.960938 C 36.058594 67.277344 35.714844 69.03125 35.511719 70.355469 C 35.332031 71.402344 35.101562 72.800781 34.992188 73.859375 " fill-opacity="1" fill-rule="nonzero"/></g><path fill="#9cff1e" d="M 111.050781 54.488281 C 111.042969 54.464844 111.039062 54.441406 111.035156 54.421875 C 111.003906 54.289062 110.980469 54.167969 110.960938 54.0625 C 111.636719 55.058594 112.527344 56.402344 113.132812 57.445312 L 114.363281 59.917969 L 113.203125 57.785156 C 112.574219 56.785156 111.53125 55.566406 111.050781 54.488281 " fill-opacity="1" fill-rule="nonzero"/><path fill="#9cff1e" d="M 104.832031 48.234375 C 104.820312 48.183594 104.808594 48.132812 104.796875 48.082031 C 104.726562 47.777344 104.671875 47.5 104.628906 47.253906 C 105.519531 47.960938 106.699219 48.921875 107.53125 49.695312 C 108.355469 50.695312 109.441406 52.03125 110.222656 53.0625 C 110.242188 53.191406 110.273438 53.332031 110.308594 53.488281 C 110.3125 53.515625 110.320312 53.539062 110.324219 53.566406 C 109.601562 52.828125 108.625 51.851562 107.839844 51.179688 C 106.949219 50.285156 105.460938 49.328125 104.832031 48.234375 " fill-opacity="1" fill-rule="nonzero"/><path fill="#9cff1e" d="M 97.113281 43.636719 C 97.09375 43.5625 97.078125 43.488281 97.0625 43.414062 C 96.957031 42.957031 96.875 42.542969 96.808594 42.171875 C 97.859375 42.582031 99.261719 43.144531 100.273438 43.636719 C 101.304688 44.476562 102.671875 45.601562 103.667969 46.476562 C 103.714844 46.742188 103.773438 47.035156 103.847656 47.363281 C 103.859375 47.417969 103.871094 47.46875 103.882812 47.523438 C 102.972656 47.082031 101.746094 46.503906 100.796875 46.148438 C 99.699219 45.386719 97.878906 44.734375 97.113281 43.636719 " fill-opacity="1" fill-rule="nonzero"/><path fill="#9cff1e" d="M 88.289062 40.824219 C 88.269531 40.726562 88.246094 40.632812 88.226562 40.539062 C 88.09375 39.953125 87.984375 39.425781 87.902344 38.957031 C 89.0625 39.0625 90.613281 39.214844 91.765625 39.414062 C 92.949219 40.066406 94.523438 40.941406 95.679688 41.636719 C 95.75 42.019531 95.835938 42.449219 95.945312 42.925781 C 95.960938 43.003906 95.980469 43.082031 95.996094 43.160156 C 94.941406 43.019531 93.53125 42.851562 92.46875 42.804688 C 91.21875 42.195312 89.554688 41.394531 88.289062 40.824219 " fill-opacity="1" fill-rule="nonzero"/><path fill="#9cff1e" d="M 78.757812 39.914062 C 78.734375 39.800781 78.707031 39.691406 78.683594 39.582031 C 78.53125 38.902344 78.40625 38.292969 78.308594 37.746094 C 79.53125 37.539062 81.164062 37.285156 82.398438 37.171875 C 83.683594 37.605469 85.394531 38.191406 86.660156 38.675781 C 86.746094 39.160156 86.855469 39.699219 86.992188 40.296875 C 87.011719 40.394531 87.035156 40.492188 87.058594 40.589844 C 85.910156 40.761719 84.375 41 83.242188 41.253906 C 81.902344 40.835938 80.113281 40.285156 78.757812 39.914062 " fill-opacity="1" fill-rule="nonzero"/><path fill="#9cff1e" d="M 68.914062 41.027344 C 68.886719 40.90625 68.859375 40.785156 68.832031 40.667969 C 68.667969 39.933594 68.53125 39.269531 68.425781 38.675781 C 69.660156 38.164062 71.3125 37.492188 72.574219 37.0625 C 73.910156 37.242188 75.683594 37.492188 77.007812 37.742188 C 77.105469 38.296875 77.230469 38.917969 77.386719 39.605469 C 77.410156 39.714844 77.4375 39.828125 77.460938 39.941406 C 76.269531 40.417969 74.679688 41.0625 73.519531 41.613281 C 72.140625 41.417969 70.300781 41.164062 68.914062 41.027344 " fill-opacity="1" fill-rule="nonzero"/><path fill="#9cff1e" d="M 59.171875 44.28125 C 59.144531 44.15625 59.117188 44.035156 59.089844 43.914062 C 58.917969 43.164062 58.78125 42.488281 58.675781 41.882812 C 59.867188 41.058594 61.460938 39.972656 62.699219 39.226562 C 64.023438 39.121094 65.789062 38.992188 67.117188 38.96875 C 67.21875 39.566406 67.355469 40.234375 67.523438 40.972656 C 67.550781 41.09375 67.578125 41.210938 67.605469 41.335938 C 66.417969 42.109375 64.835938 43.152344 63.6875 43.992188 C 62.332031 44.050781 60.523438 44.144531 59.171875 44.28125 " fill-opacity="1" fill-rule="nonzero"/><path fill="#9cff1e" d="M 50.597656 49.359375 C 50.570312 49.242188 50.542969 49.125 50.519531 49.007812 C 50.355469 48.289062 50.222656 47.640625 50.121094 47.0625 C 51.105469 46.015625 52.429688 44.632812 53.472656 43.644531 C 54.65625 43.261719 56.238281 42.769531 57.445312 42.472656 C 57.550781 43.074219 57.6875 43.75 57.859375 44.496094 C 57.886719 44.617188 57.914062 44.738281 57.941406 44.863281 C 56.875 45.886719 55.460938 47.257812 54.449219 48.335938 C 53.285156 48.617188 51.738281 49.003906 50.597656 49.359375 " fill-opacity="1" fill-rule="nonzero"/><path fill="#9cff1e" d="M 43.75 55.808594 C 43.726562 55.703125 43.703125 55.597656 43.679688 55.492188 C 43.53125 54.84375 43.414062 54.261719 43.320312 53.742188 C 44.074219 52.542969 45.089844 50.949219 45.90625 49.789062 C 46.851562 49.1875 48.125 48.394531 49.117188 47.871094 C 49.214844 48.445312 49.347656 49.085938 49.507812 49.796875 C 49.53125 49.910156 49.558594 50.027344 49.585938 50.144531 C 48.734375 51.328125 47.605469 52.914062 46.804688 54.132812 C 45.875 54.609375 44.636719 55.257812 43.75 55.808594 " fill-opacity="1" fill-rule="nonzero"/><path fill="#9cff1e" d="M 38.796875 63.273438 C 38.777344 63.183594 38.757812 63.097656 38.738281 63.007812 C 38.613281 62.472656 38.515625 61.984375 38.441406 61.546875 C 38.945312 60.257812 39.625 58.539062 40.1875 57.273438 C 40.875 56.484375 41.804688 55.445312 42.558594 54.71875 C 42.648438 55.230469 42.765625 55.804688 42.910156 56.4375 C 42.933594 56.539062 42.957031 56.644531 42.980469 56.75 C 42.359375 58.023438 41.539062 59.730469 40.96875 61.027344 C 40.292969 61.679688 39.40625 62.558594 38.796875 63.273438 " fill-opacity="1" fill-rule="nonzero"/><path fill="#9cff1e" d="M 35.910156 71.402344 C 35.894531 71.335938 35.878906 71.269531 35.863281 71.207031 C 35.773438 70.804688 35.699219 70.441406 35.640625 70.113281 C 35.875 68.792969 36.195312 67.027344 36.492188 65.71875 C 36.902344 64.785156 37.457031 63.542969 37.945312 62.648438 C 38.019531 63.070312 38.113281 63.542969 38.234375 64.066406 C 38.253906 64.152344 38.273438 64.234375 38.292969 64.324219 C 37.917969 65.625 37.429688 67.363281 37.109375 68.679688 C 36.71875 69.484375 36.214844 70.566406 35.910156 71.402344 " fill-opacity="1" fill-rule="nonzero"/><g clip-path="url(#6c0eafc8d9)"><path fill="#9cff1e" d="M 35.253906 79.84375 C 35.246094 79.804688 35.234375 79.765625 35.226562 79.726562 C 35.171875 79.484375 35.125 79.265625 35.09375 79.070312 C 35.035156 77.773438 34.96875 76.046875 34.980469 74.75 C 35.089844 73.707031 35.246094 72.320312 35.4375 71.289062 C 35.488281 71.597656 35.558594 71.941406 35.648438 72.324219 C 35.660156 72.386719 35.675781 72.449219 35.691406 72.511719 C 35.582031 73.785156 35.445312 75.476562 35.394531 76.753906 C 35.324219 77.679688 35.246094 78.917969 35.253906 79.84375 " fill-opacity="1" fill-rule="nonzero"/></g><path fill="#9cff1e" d="M 113.597656 58.566406 C 113.582031 58.507812 113.566406 58.453125 113.554688 58.402344 L 114.363281 59.917969 L 113.597656 58.566406 " fill-opacity="1" fill-rule="nonzero"/><path fill="#9cff1e" d="M 108.644531 52.789062 C 108.546875 52.460938 108.460938 52.152344 108.382812 51.859375 C 109.128906 52.550781 110.109375 53.484375 110.789062 54.238281 C 111.460938 55.191406 112.351562 56.464844 112.980469 57.449219 C 113 57.535156 113.027344 57.625 113.054688 57.71875 C 112.5 57.015625 111.75 56.085938 111.125 55.445312 C 110.390625 54.636719 109.195312 53.726562 108.644531 52.789062 " fill-opacity="1" fill-rule="nonzero"/><path fill="#9cff1e" d="M 101.953125 48.480469 C 101.785156 47.910156 101.632812 47.371094 101.5 46.863281 C 102.417969 47.242188 103.636719 47.761719 104.515625 48.226562 C 105.4375 49.082031 106.664062 50.222656 107.558594 51.105469 C 107.644531 51.425781 107.738281 51.769531 107.847656 52.128906 C 107.085938 51.722656 106.058594 51.195312 105.257812 50.882812 C 104.273438 50.152344 102.667969 49.476562 101.953125 48.480469 " fill-opacity="1" fill-rule="nonzero"/><path fill="#9cff1e" d="M 93.910156 45.726562 C 93.679688 44.949219 93.472656 44.210938 93.292969 43.519531 C 94.335938 43.589844 95.726562 43.699219 96.761719 43.867188 C 97.882812 44.589844 99.375 45.5625 100.476562 46.320312 C 100.617188 46.855469 100.777344 47.425781 100.953125 48.023438 C 100.027344 47.921875 98.789062 47.800781 97.859375 47.789062 C 96.679688 47.164062 95.101562 46.332031 93.910156 45.726562 " fill-opacity="1" fill-rule="nonzero"/><path fill="#9cff1e" d="M 84.902344 44.613281 C 84.625 43.671875 84.375 42.773438 84.152344 41.933594 C 85.277344 41.703125 86.777344 41.410156 87.917969 41.265625 C 89.183594 41.835938 90.871094 42.597656 92.125 43.207031 C 92.3125 43.921875 92.523438 44.683594 92.761719 45.484375 C 91.71875 45.679688 90.332031 45.960938 89.308594 46.238281 C 87.988281 45.742188 86.230469 45.082031 84.902344 44.613281 " fill-opacity="1" fill-rule="nonzero"/><path fill="#9cff1e" d="M 65.527344 47.625 C 65.203125 46.511719 64.90625 45.457031 64.644531 44.464844 C 65.800781 43.652344 67.34375 42.574219 68.542969 41.824219 C 69.933594 41.976562 71.785156 42.1875 73.167969 42.398438 C 73.421875 43.347656 73.703125 44.363281 74.019531 45.429688 C 72.882812 46.195312 71.375 47.222656 70.277344 48.039062 C 68.855469 47.894531 66.957031 47.710938 65.527344 47.625 " fill-opacity="1" fill-rule="nonzero"/><path fill="#9cff1e" d="M 56.179688 51.789062 C 55.859375 50.6875 55.566406 49.644531 55.308594 48.664062 C 56.34375 47.609375 57.738281 46.207031 58.832031 45.203125 C 60.183594 45.089844 61.992188 44.957031 63.351562 44.917969 C 63.613281 45.910156 63.910156 46.96875 64.238281 48.082031 C 63.128906 49.09375 61.65625 50.457031 60.59375 51.515625 C 59.269531 51.578125 57.503906 51.667969 56.179688 51.789062 " fill-opacity="1" fill-rule="nonzero"/><path fill="#9cff1e" d="M 48.332031 57.214844 C 48.03125 56.191406 47.757812 55.222656 47.519531 54.308594 C 48.347656 53.105469 49.460938 51.503906 50.339844 50.335938 C 51.484375 50.011719 53.015625 49.589844 54.175781 49.339844 C 54.433594 50.3125 54.722656 51.351562 55.046875 52.445312 C 54.125 53.609375 52.902344 55.167969 52.023438 56.367188 C 50.910156 56.597656 49.425781 56.914062 48.332031 57.214844 " fill-opacity="1" fill-rule="nonzero"/><path fill="#9cff1e" d="M 42.21875 63.570312 C 41.953125 62.679688 41.71875 61.835938 41.511719 61.042969 C 42.113281 59.757812 42.921875 58.042969 43.574219 56.777344 C 44.46875 56.265625 45.675781 55.589844 46.613281 55.148438 C 46.851562 56.046875 47.117188 57.003906 47.414062 58.011719 C 46.703125 59.257812 45.757812 60.921875 45.085938 62.1875 C 44.210938 62.578125 43.050781 63.109375 42.21875 63.570312 " fill-opacity="1" fill-rule="nonzero"/><path fill="#9cff1e" d="M 38.019531 70.542969 C 37.8125 69.832031 37.621094 69.160156 37.457031 68.53125 C 37.8125 67.222656 38.296875 65.480469 38.703125 64.1875 C 39.324219 63.511719 40.167969 62.613281 40.855469 62 C 41.058594 62.773438 41.289062 63.597656 41.546875 64.46875 C 41.054688 65.726562 40.410156 67.410156 39.960938 68.683594 C 39.355469 69.21875 38.558594 69.941406 38.019531 70.542969 " fill-opacity="1" fill-rule="nonzero"/><path fill="#9cff1e" d="M 35.917969 77.816406 C 35.773438 77.328125 35.644531 76.867188 35.53125 76.433594 C 35.621094 75.167969 35.753906 73.480469 35.902344 72.21875 C 36.222656 71.410156 36.667969 70.332031 37.074219 69.5625 C 37.234375 70.167969 37.414062 70.816406 37.617188 71.496094 C 37.367188 72.710938 37.039062 74.328125 36.832031 75.546875 C 36.527344 76.214844 36.136719 77.117188 35.917969 77.816406 " fill-opacity="1" fill-rule="nonzero"/><path fill="#9cff1e" d="M 36.089844 85.082031 C 36.023438 84.847656 35.960938 84.625 35.90625 84.417969 C 35.710938 83.253906 35.464844 81.695312 35.335938 80.519531 C 35.339844 79.613281 35.355469 78.398438 35.445312 77.496094 C 35.550781 77.902344 35.671875 78.332031 35.804688 78.789062 C 35.8125 79.898438 35.824219 81.378906 35.886719 82.484375 C 35.917969 83.265625 35.980469 84.308594 36.089844 85.082031 " fill-opacity="1" fill-rule="nonzero"/><path fill="#9cff1e" d="M 36.398438 86.46875 L 36.222656 85.804688 L 36.136719 85.464844 C 36.183594 85.640625 36.238281 85.828125 36.292969 86.027344 L 36.621094 87.230469 C 36.554688 87.003906 36.460938 86.699219 36.398438 86.46875 " fill-opacity="1" fill-rule="nonzero"/><path fill="#9cff1e" d="M 111.648438 56.53125 C 111.574219 56.304688 111.5 56.082031 111.433594 55.871094 C 112.019531 56.523438 112.785156 57.40625 113.296875 58.113281 L 114.363281 59.917969 L 113.46875 58.644531 C 112.933594 58 112.074219 57.253906 111.648438 56.53125 " fill-opacity="1" fill-rule="nonzero"/><path fill="#9cff1e" d="M 106.207031 52.929688 C 106.03125 52.40625 105.867188 51.898438 105.71875 51.410156 C 106.488281 51.742188 107.515625 52.203125 108.242188 52.625 C 109.015625 53.386719 110.039062 54.40625 110.78125 55.199219 C 110.859375 55.449219 110.941406 55.707031 111.03125 55.980469 C 110.4375 55.636719 109.628906 55.191406 108.988281 54.9375 C 108.160156 54.328125 106.824219 53.753906 106.207031 52.929688 " fill-opacity="1" fill-rule="nonzero"/><path fill="#9cff1e" d="M 99.171875 50.671875 C 98.910156 49.882812 98.667969 49.125 98.4375 48.394531 C 99.351562 48.421875 100.574219 48.476562 101.480469 48.597656 C 102.492188 49.289062 103.839844 50.210938 104.832031 50.925781 C 104.996094 51.445312 105.171875 51.988281 105.355469 52.550781 C 104.574219 52.507812 103.527344 52.464844 102.742188 52.515625 C 101.675781 51.957031 99.960938 51.582031 99.171875 50.671875 " fill-opacity="1" fill-rule="nonzero"/><path fill="#9cff1e" d="M 90.917969 49.789062 C 90.582031 48.789062 90.269531 47.816406 89.980469 46.890625 C 90.996094 46.625 92.355469 46.285156 93.390625 46.109375 C 94.589844 46.699219 96.1875 47.492188 97.375 48.105469 C 97.613281 48.863281 97.867188 49.65625 98.140625 50.472656 C 97.21875 50.722656 95.992188 51.070312 95.09375 51.394531 C 93.84375 50.90625 92.175781 50.261719 90.917969 49.789062 " fill-opacity="1" fill-rule="nonzero"/><path fill="#9cff1e" d="M 81.8125 50.328125 C 81.421875 49.164062 81.058594 48.035156 80.722656 46.957031 C 81.800781 46.417969 83.246094 45.703125 84.355469 45.234375 C 85.6875 45.695312 87.464844 46.316406 88.789062 46.804688 C 89.085938 47.757812 89.410156 48.75 89.75 49.777344 C 88.734375 50.304688 87.386719 51.015625 86.40625 51.597656 C 85.03125 51.207031 83.195312 50.691406 81.8125 50.328125 " fill-opacity="1" fill-rule="nonzero"/><path fill="#9cff1e" d="M 72.222656 52.316406 C 71.804688 51.054688 71.410156 49.832031 71.042969 48.664062 C 72.144531 47.859375 73.621094 46.796875 74.757812 46.046875 C 76.171875 46.347656 78.050781 46.75 79.453125 47.089844 C 79.796875 48.183594 80.164062 49.324219 80.558594 50.507812 C 79.492188 51.28125 78.078125 52.324219 77.046875 53.144531 C 75.601562 52.882812 73.671875 52.542969 72.222656 52.316406 " fill-opacity="1" fill-rule="nonzero"/><path fill="#9cff1e" d="M 62.542969 55.785156 C 62.117188 54.5 61.714844 53.253906 61.34375 52.0625 C 62.421875 51.019531 63.867188 49.632812 64.984375 48.632812 C 66.414062 48.730469 68.320312 48.867188 69.75 49.015625 C 70.113281 50.195312 70.511719 51.421875 70.933594 52.691406 C 69.855469 53.691406 68.425781 55.027344 67.378906 56.0625 C 65.929688 55.964844 63.996094 55.839844 62.542969 55.785156 " fill-opacity="1" fill-rule="nonzero"/><path fill="#9cff1e" d="M 46.660156 65.734375 C 46.289062 64.625 45.945312 63.550781 45.625 62.523438 C 46.320312 61.265625 47.253906 59.59375 47.984375 58.359375 C 49.078125 58.085938 50.539062 57.738281 51.648438 57.527344 C 52 58.660156 52.378906 59.839844 52.785156 61.0625 C 51.992188 62.273438 50.933594 63.894531 50.167969 65.128906 C 49.113281 65.289062 47.703125 65.511719 46.660156 65.734375 " fill-opacity="1" fill-rule="nonzero"/><path fill="#9cff1e" d="M 41.226562 71.558594 C 40.917969 70.632812 40.628906 69.738281 40.359375 68.878906 C 40.835938 67.613281 41.476562 65.933594 41.988281 64.683594 C 42.824219 64.253906 43.949219 63.695312 44.816406 63.335938 C 45.132812 64.34375 45.472656 65.398438 45.832031 66.488281 C 45.238281 67.695312 44.445312 69.3125 43.875 70.535156 C 43.074219 70.820312 42 71.207031 41.226562 71.558594 " fill-opacity="1" fill-rule="nonzero"/><path fill="#9cff1e" d="M 37.722656 77.59375 C 37.492188 76.898438 37.277344 76.230469 37.074219 75.589844 C 37.3125 74.378906 37.636719 72.769531 37.914062 71.566406 C 38.457031 71 39.199219 70.253906 39.808594 69.753906 C 40.066406 70.585938 40.347656 71.453125 40.644531 72.351562 C 40.261719 73.5 39.753906 75.03125 39.402344 76.183594 C 38.878906 76.582031 38.183594 77.125 37.722656 77.59375 " fill-opacity="1" fill-rule="nonzero"/><path fill="#9cff1e" d="M 36.34375 83.570312 C 36.207031 83.152344 36.074219 82.75 35.957031 82.363281 C 35.929688 81.265625 35.910156 79.800781 35.9375 78.703125 C 36.167969 78.027344 36.484375 77.128906 36.800781 76.492188 C 36.988281 77.101562 37.195312 77.738281 37.414062 78.394531 C 37.261719 79.421875 37.058594 80.792969 36.945312 81.824219 C 36.734375 82.335938 36.464844 83.027344 36.34375 83.570312 " fill-opacity="1" fill-rule="nonzero"/><path fill="#9cff1e" d="M 37.042969 88.574219 C 36.960938 88.320312 36.851562 87.988281 36.773438 87.734375 L 36.707031 87.523438 L 36.25 85.785156 C 36.140625 85.027344 36.003906 84.015625 35.980469 83.253906 C 36.089844 83.601562 36.207031 83.964844 36.332031 84.34375 C 36.425781 85.203125 36.554688 86.351562 36.707031 87.203125 C 36.804688 87.613281 36.910156 88.171875 37.042969 88.574219 " fill-opacity="1" fill-rule="nonzero"/><path fill="#9cff1e" d="M 113.828125 59.253906 C 113.800781 59.179688 113.773438 59.109375 113.75 59.039062 L 114.363281 59.917969 L 113.828125 59.253906 " fill-opacity="1" fill-rule="nonzero"/><path fill="#9cff1e" d="M 109.941406 56.695312 C 109.792969 56.28125 109.648438 55.875 109.511719 55.480469 C 110.113281 55.75 110.910156 56.132812 111.464844 56.492188 C 112.027344 57.082031 112.773438 57.875 113.304688 58.496094 C 113.34375 58.609375 113.386719 58.726562 113.429688 58.847656 C 113.027344 58.582031 112.472656 58.238281 112.023438 58.070312 C 111.402344 57.652344 110.410156 57.28125 109.941406 56.695312 " fill-opacity="1" fill-rule="nonzero"/><path fill="#9cff1e" d="M 104.214844 55.292969 C 103.957031 54.570312 103.703125 53.863281 103.46875 53.175781 C 104.226562 53.144531 105.242188 53.117188 106 53.183594 C 106.847656 53.753906 107.972656 54.515625 108.804688 55.101562 C 108.957031 55.539062 109.113281 55.984375 109.28125 56.441406 C 108.664062 56.472656 107.835938 56.535156 107.230469 56.65625 C 106.328125 56.246094 105.121094 55.699219 104.214844 55.292969 " fill-opacity="1" fill-rule="nonzero"/><path fill="#9cff1e" d="M 97.003906 55.03125 C 96.644531 54.046875 96.304688 53.082031 95.980469 52.140625 C 96.863281 51.832031 98.050781 51.425781 98.957031 51.195312 C 100.035156 51.722656 101.476562 52.425781 102.546875 52.964844 C 102.800781 53.6875 103.0625 54.433594 103.335938 55.191406 C 102.558594 55.511719 101.523438 55.949219 100.777344 56.332031 C 99.644531 55.941406 98.136719 55.421875 97.003906 55.03125 " fill-opacity="1" fill-rule="nonzero"/><path fill="#9cff1e" d="M 79.519531 57.863281 C 79.035156 56.523438 78.570312 55.210938 78.128906 53.933594 C 79.15625 53.125 80.535156 52.054688 81.597656 51.289062 C 82.984375 51.652344 84.832031 52.136719 86.214844 52.519531 C 86.613281 53.679688 87.039062 54.875 87.476562 56.089844 C 86.503906 56.898438 85.207031 57.980469 84.265625 58.820312 C 82.839844 58.527344 80.945312 58.140625 79.519531 57.863281 " fill-opacity="1" fill-rule="nonzero"/><path fill="#9cff1e" d="M 60.554688 64.945312 C 60.050781 63.550781 59.566406 62.183594 59.109375 60.855469 C 60.070312 59.6875 61.363281 58.132812 62.363281 56.992188 C 63.816406 57.0625 65.753906 57.160156 67.203125 57.269531 C 67.667969 58.617188 68.15625 60 68.667969 61.410156 C 67.644531 62.558594 66.285156 64.089844 65.289062 65.257812 C 63.871094 65.15625 61.976562 65.023438 60.554688 64.945312 " fill-opacity="1" fill-rule="nonzero"/><path fill="#9cff1e" d="M 52.398438 69.453125 C 51.929688 68.15625 51.480469 66.886719 51.054688 65.648438 C 51.839844 64.425781 52.894531 62.800781 53.714844 61.597656 C 54.984375 61.539062 56.683594 61.46875 57.957031 61.457031 C 58.414062 62.777344 58.894531 64.132812 59.394531 65.519531 C 58.519531 66.707031 57.359375 68.292969 56.507812 69.496094 C 55.277344 69.46875 53.632812 69.441406 52.398438 69.453125 " fill-opacity="1" fill-rule="nonzero"/><path fill="#9cff1e" d="M 45.753906 74.214844 C 45.347656 73.085938 44.957031 71.980469 44.585938 70.90625 C 45.179688 69.695312 45.976562 68.082031 46.601562 66.878906 C 47.644531 66.695312 49.042969 66.457031 50.097656 66.328125 C 50.519531 67.542969 50.964844 68.796875 51.425781 70.074219 C 50.722656 71.238281 49.792969 72.789062 49.105469 73.964844 C 48.101562 74.023438 46.757812 74.105469 45.753906 74.214844 " fill-opacity="1" fill-rule="nonzero"/><path fill="#9cff1e" d="M 37.855469 83.640625 C 37.628906 83.023438 37.417969 82.417969 37.214844 81.832031 C 37.367188 80.808594 37.578125 79.453125 37.765625 78.4375 C 38.242188 78.015625 38.894531 77.464844 39.429688 77.113281 C 39.710938 77.933594 40.011719 78.78125 40.324219 79.644531 C 40.011719 80.585938 39.601562 81.847656 39.308594 82.796875 C 38.859375 83.023438 38.257812 83.339844 37.855469 83.640625 " fill-opacity="1" fill-rule="nonzero"/><path fill="#9cff1e" d="M 37.019531 87.875 C 36.914062 87.582031 36.808594 87.289062 36.714844 87.007812 C 36.609375 86.164062 36.484375 85.039062 36.4375 84.191406 C 36.578125 83.6875 36.78125 83.007812 37.015625 82.539062 C 37.207031 83.089844 37.40625 83.652344 37.613281 84.230469 C 37.523438 84.988281 37.40625 86.003906 37.347656 86.765625 C 37.214844 87.085938 37.058594 87.53125 37.019531 87.875 " fill-opacity="1" fill-rule="nonzero"/><path fill="#9cff1e" d="M 37.339844 89.429688 C 37.269531 89.230469 37.175781 88.964844 37.109375 88.765625 L 36.820312 87.660156 C 36.90625 87.902344 36.992188 88.148438 37.082031 88.398438 C 37.1875 88.785156 37.296875 89.308594 37.433594 89.683594 L 37.339844 89.429688 " fill-opacity="1" fill-rule="nonzero"/><path fill="#9cff1e" d="M 112.589844 59.128906 C 112.484375 58.863281 112.386719 58.605469 112.289062 58.347656 C 112.707031 58.53125 113.257812 58.800781 113.621094 59.078125 L 114.363281 59.917969 L 113.859375 59.703125 C 113.476562 59.53125 112.875 59.433594 112.589844 59.128906 " fill-opacity="1" fill-rule="nonzero"/><path fill="#9cff1e" d="M 108.363281 58.890625 C 108.128906 58.285156 107.902344 57.683594 107.679688 57.09375 C 108.269531 56.984375 109.0625 56.851562 109.660156 56.832031 C 110.300781 57.214844 111.152344 57.726562 111.789062 58.117188 C 111.902344 58.421875 112.019531 58.730469 112.140625 59.042969 C 111.699219 59.171875 111.113281 59.367188 110.699219 59.570312 C 109.996094 59.371094 109.058594 59.105469 108.363281 58.890625 " fill-opacity="1" fill-rule="nonzero"/><path fill="#9cff1e" d="M 102.398438 59.597656 C 102.050781 58.6875 101.707031 57.789062 101.378906 56.90625 C 102.117188 56.527344 103.109375 56.03125 103.878906 55.722656 C 104.792969 56.109375 106.015625 56.621094 106.933594 57.007812 C 107.167969 57.640625 107.414062 58.285156 107.664062 58.933594 C 107.042969 59.34375 106.222656 59.902344 105.636719 60.359375 C 104.664062 60.136719 103.367188 59.835938 102.398438 59.597656 " fill-opacity="1" fill-rule="nonzero"/><path fill="#9cff1e" d="M 95.03125 61.171875 C 94.585938 60.015625 94.148438 58.867188 93.730469 57.738281 C 94.585938 57.117188 95.734375 56.296875 96.625 55.722656 C 97.769531 56.09375 99.292969 56.585938 100.433594 56.957031 C 100.777344 57.878906 101.128906 58.8125 101.496094 59.757812 C 100.734375 60.414062 99.726562 61.292969 99 61.980469 C 97.808594 61.742188 96.21875 61.421875 95.03125 61.171875 " fill-opacity="1" fill-rule="nonzero"/><path fill="#9cff1e" d="M 86.589844 63.546875 C 86.070312 62.203125 85.566406 60.871094 85.078125 59.558594 C 86.019531 58.722656 87.277344 57.609375 88.25 56.808594 C 89.566406 57.140625 91.316406 57.585938 92.632812 57.925781 C 93.0625 59.082031 93.507812 60.257812 93.964844 61.441406 C 93.097656 62.304688 91.949219 63.457031 91.105469 64.339844 C 89.75 64.105469 87.945312 63.789062 86.589844 63.546875 " fill-opacity="1" fill-rule="nonzero"/><path fill="#9cff1e" d="M 67.824219 70.394531 C 67.25 68.910156 66.691406 67.4375 66.152344 65.988281 C 67.160156 64.828125 68.503906 63.28125 69.53125 62.140625 C 71.023438 62.320312 73.007812 62.558594 74.496094 62.761719 C 75.027344 64.191406 75.578125 65.644531 76.144531 67.109375 C 75.15625 68.253906 73.84375 69.78125 72.867188 70.933594 C 71.355469 70.769531 69.335938 70.550781 67.824219 70.394531 " fill-opacity="1" fill-rule="nonzero"/><path fill="#9cff1e" d="M 51.214844 78.339844 C 50.71875 77.054688 50.238281 75.785156 49.773438 74.539062 C 50.472656 73.375 51.414062 71.824219 52.128906 70.667969 C 53.355469 70.679688 54.984375 70.699219 56.210938 70.742188 C 56.722656 72.117188 57.25 73.511719 57.796875 74.921875 C 57.003906 76.046875 55.953125 77.550781 55.167969 78.679688 C 53.984375 78.570312 52.402344 78.425781 51.214844 78.339844 " fill-opacity="1" fill-rule="nonzero"/><path fill="#9cff1e" d="M 45.027344 82.078125 C 44.613281 81.007812 44.210938 79.949219 43.824219 78.90625 C 44.34375 77.828125 45.039062 76.394531 45.570312 75.328125 C 46.566406 75.25 47.890625 75.152344 48.886719 75.121094 C 49.34375 76.347656 49.816406 77.59375 50.300781 78.851562 C 49.671875 79.871094 48.828125 81.230469 48.199219 82.253906 C 47.246094 82.191406 45.980469 82.105469 45.027344 82.078125 " fill-opacity="1" fill-rule="nonzero"/><path fill="#9cff1e" d="M 40.5625 85.449219 C 40.253906 84.648438 39.953125 83.859375 39.664062 83.078125 C 39.980469 82.144531 40.40625 80.898438 40.742188 79.964844 C 41.460938 79.796875 42.429688 79.585938 43.164062 79.472656 C 43.539062 80.484375 43.929688 81.511719 44.332031 82.550781 C 43.875 83.414062 43.269531 84.566406 42.8125 85.433594 C 42.136719 85.421875 41.238281 85.414062 40.5625 85.449219 " fill-opacity="1" fill-rule="nonzero"/><path fill="#9cff1e" d="M 38.050781 88.296875 C 37.867188 87.816406 37.6875 87.339844 37.511719 86.871094 C 37.601562 86.121094 37.730469 85.125 37.851562 84.382812 C 38.257812 84.125 38.8125 83.792969 39.257812 83.609375 C 39.535156 84.347656 39.816406 85.101562 40.109375 85.859375 C 39.851562 86.523438 39.507812 87.410156 39.253906 88.078125 C 38.890625 88.121094 38.402344 88.1875 38.050781 88.296875 " fill-opacity="1" fill-rule="nonzero"/><path fill="#9cff1e" d="M 37.695312 90.382812 L 37.582031 90.085938 L 37.488281 89.828125 C 37.367188 89.390625 37.195312 88.808594 37.117188 88.363281 C 37.164062 88.046875 37.246094 87.617188 37.390625 87.335938 C 37.546875 87.757812 37.710938 88.191406 37.878906 88.625 C 37.832031 89.050781 37.769531 89.617188 37.753906 90.042969 C 37.71875 90.140625 37.667969 90.28125 37.695312 90.382812 " fill-opacity="1" fill-rule="nonzero"/><path fill="#9cff1e" d="M 114.132812 60.046875 C 114.101562 59.96875 114.070312 59.890625 114.039062 59.8125 L 114.363281 59.917969 L 114.132812 60.046875 " fill-opacity="1" fill-rule="nonzero"/><path fill="#9cff1e" d="M 111.6875 61.207031 C 111.503906 60.765625 111.324219 60.320312 111.152344 59.882812 C 111.542969 59.683594 112.070312 59.425781 112.492188 59.304688 C 112.878906 59.449219 113.390625 59.636719 113.777344 59.765625 C 113.828125 59.894531 113.882812 60.023438 113.933594 60.152344 C 113.699219 60.40625 113.394531 60.753906 113.1875 61.03125 C 112.738281 61.105469 112.140625 61.1875 111.6875 61.207031 " fill-opacity="1" fill-rule="nonzero"/><path fill="#9cff1e" d="M 101.152344 65.777344 C 100.722656 64.71875 100.296875 63.667969 99.882812 62.617188 C 100.597656 61.929688 101.558594 61.015625 102.304688 60.359375 C 103.277344 60.570312 104.578125 60.847656 105.554688 61.039062 C 105.875 61.847656 106.203125 62.660156 106.535156 63.472656 C 105.9375 64.21875 105.144531 65.214844 104.566406 65.976562 C 103.542969 65.929688 102.175781 65.855469 101.152344 65.777344 " fill-opacity="1" fill-rule="nonzero"/><path fill="#9cff1e" d="M 93.6875 68.921875 C 93.164062 67.640625 92.648438 66.363281 92.144531 65.089844 C 92.976562 64.207031 94.085938 63.03125 94.941406 62.167969 C 96.136719 62.394531 97.726562 62.695312 98.921875 62.90625 C 99.351562 63.988281 99.789062 65.078125 100.234375 66.164062 C 99.5 67.097656 98.527344 68.339844 97.808594 69.285156 C 96.570312 69.183594 94.921875 69.046875 93.6875 68.921875 " fill-opacity="1" fill-rule="nonzero"/><path fill="#9cff1e" d="M 57.859375 83.585938 C 57.292969 82.199219 56.734375 80.8125 56.1875 79.429688 C 56.984375 78.304688 58.050781 76.804688 58.859375 75.683594 C 60.234375 75.828125 62.066406 76.027344 63.441406 76.183594 C 64.023438 77.65625 64.621094 79.140625 65.230469 80.621094 C 64.363281 81.730469 63.203125 83.207031 62.335938 84.3125 C 60.992188 84.09375 59.203125 83.804688 57.859375 83.585938 " fill-opacity="1" fill-rule="nonzero"/><path fill="#9cff1e" d="M 44.617188 88.800781 C 44.222656 87.839844 43.835938 86.878906 43.457031 85.921875 C 43.9375 85.066406 44.574219 83.929688 45.050781 83.070312 C 46 83.136719 47.265625 83.230469 48.214844 83.320312 C 48.675781 84.492188 49.152344 85.671875 49.632812 86.847656 C 49.042969 87.648438 48.25 88.714844 47.640625 89.5 C 46.734375 89.285156 45.527344 89 44.617188 88.800781 " fill-opacity="1" fill-rule="nonzero"/><path fill="#9cff1e" d="M 40.453125 90.363281 C 40.183594 89.703125 39.914062 89.042969 39.65625 88.386719 C 39.941406 87.734375 40.320312 86.863281 40.605469 86.210938 C 41.277344 86.21875 42.175781 86.238281 42.84375 86.285156 C 43.210938 87.203125 43.582031 88.128906 43.960938 89.050781 C 43.535156 89.632812 42.96875 90.410156 42.523438 90.976562 C 41.902344 90.789062 41.078125 90.539062 40.453125 90.363281 " fill-opacity="1" fill-rule="nonzero"/><path fill="#9cff1e" d="M 38.265625 91.105469 C 38.136719 90.785156 38.007812 90.46875 37.886719 90.15625 C 37.945312 89.742188 38.03125 89.191406 38.113281 88.785156 C 38.464844 88.726562 38.941406 88.671875 39.296875 88.664062 C 39.542969 89.277344 39.789062 89.894531 40.042969 90.511719 C 39.8125 90.84375 39.503906 91.285156 39.246094 91.597656 C 38.953125 91.449219 38.492188 91.34375 38.265625 91.105469 " fill-opacity="1" fill-rule="nonzero"/><path fill="#9cff1e" d="M 38.050781 91.265625 C 37.894531 90.882812 37.894531 90.882812 37.816406 90.6875 L 37.753906 90.523438 C 37.761719 90.46875 37.777344 90.398438 37.789062 90.34375 L 37.816406 90.328125 C 37.921875 90.597656 38.03125 90.867188 38.140625 91.132812 C 38.117188 91.1875 38.113281 91.277344 38.066406 91.304688 L 38.050781 91.265625 " fill-opacity="1" fill-rule="nonzero"/><path fill="#9cff1e" d="M 113.726562 61.914062 C 113.613281 61.648438 113.5 61.382812 113.386719 61.113281 C 113.578125 60.828125 113.832031 60.445312 114.050781 60.175781 L 114.363281 59.917969 L 114.320312 60.816406 C 114.175781 61.160156 113.964844 61.621094 113.726562 61.914062 " fill-opacity="1" fill-rule="nonzero"/><path fill="#9cff1e" d="M 110.980469 65.28125 C 110.714844 64.675781 110.457031 64.0625 110.195312 63.449219 C 110.589844 62.898438 111.113281 62.171875 111.53125 61.644531 C 112 61.585938 112.625 61.503906 113.082031 61.382812 C 113.214844 61.695312 113.347656 62.011719 113.484375 62.324219 C 113.253906 62.957031 112.953125 63.804688 112.726562 64.4375 C 112.214844 64.71875 111.523438 65.078125 110.980469 65.28125 " fill-opacity="1" fill-rule="nonzero"/><path fill="#9cff1e" d="M 106.320312 69.164062 C 105.925781 68.257812 105.535156 67.339844 105.148438 66.417969 C 105.710938 65.648438 106.464844 64.621094 107.050781 63.867188 C 107.824219 63.867188 108.855469 63.859375 109.625 63.808594 C 109.902344 64.46875 110.183594 65.121094 110.464844 65.773438 C 110.042969 66.621094 109.484375 67.75 109.070312 68.601562 C 108.25 68.792969 107.148438 69.035156 106.320312 69.164062 " fill-opacity="1" fill-rule="nonzero"/><path fill="#9cff1e" d="M 65.039062 89.398438 C 64.417969 87.972656 63.804688 86.53125 63.199219 85.085938 C 64.074219 83.984375 65.242188 82.511719 66.117188 81.402344 C 67.601562 81.601562 69.574219 81.867188 71.058594 82.058594 C 71.691406 83.5625 72.328125 85.058594 72.972656 86.542969 C 72.050781 87.65625 70.820312 89.136719 69.886719 90.238281 C 68.429688 89.992188 66.488281 89.664062 65.039062 89.398438 " fill-opacity="1" fill-rule="nonzero"/><path fill="#9cff1e" d="M 56.746094 91.84375 C 56.1875 90.5625 55.636719 89.265625 55.09375 87.964844 C 55.851562 87 56.859375 85.714844 57.609375 84.742188 C 58.945312 84.972656 60.722656 85.277344 62.058594 85.507812 C 62.660156 86.9375 63.265625 88.363281 63.878906 89.773438 C 63.050781 90.722656 61.941406 91.988281 61.097656 92.917969 C 59.789062 92.601562 58.050781 92.175781 56.746094 91.84375 " fill-opacity="1" fill-rule="nonzero"/><path fill="#9cff1e" d="M 49.644531 93.351562 C 49.179688 92.277344 48.71875 91.199219 48.261719 90.113281 C 48.882812 89.332031 49.707031 88.289062 50.308594 87.492188 C 51.449219 87.730469 52.96875 88.050781 54.105469 88.292969 C 54.640625 89.570312 55.183594 90.839844 55.730469 92.101562 C 55.015625 92.847656 54.0625 93.84375 53.324219 94.5625 C 52.21875 94.203125 50.746094 93.71875 49.644531 93.351562 " fill-opacity="1" fill-rule="nonzero"/><path fill="#9cff1e" d="M 44.011719 93.871094 C 43.664062 93.070312 43.320312 92.261719 42.980469 91.449219 C 43.4375 90.890625 44.042969 90.144531 44.480469 89.566406 C 45.375 89.792969 46.570312 90.101562 47.46875 90.339844 C 47.910156 91.390625 48.355469 92.4375 48.804688 93.476562 C 48.230469 93.992188 47.464844 94.671875 46.859375 95.148438 C 46.003906 94.765625 44.667969 94.539062 44.011719 93.871094 " fill-opacity="1" fill-rule="nonzero"/><path fill="#9cff1e" d="M 40.128906 93.363281 C 39.917969 92.882812 39.710938 92.394531 39.507812 91.90625 C 39.777344 91.605469 40.132812 91.195312 40.378906 90.871094 C 40.988281 91.078125 41.800781 91.351562 42.410156 91.5625 C 42.730469 92.335938 43.058594 93.101562 43.390625 93.863281 C 42.980469 94.117188 42.429688 94.453125 41.988281 94.644531 C 41.425781 94.265625 40.550781 93.890625 40.128906 93.363281 " fill-opacity="1" fill-rule="nonzero"/><path fill="#9cff1e" d="M 38.34375 91.957031 L 38.300781 91.859375 C 38.246094 91.730469 38.171875 91.558594 38.121094 91.433594 C 38.171875 91.410156 38.234375 91.359375 38.265625 91.3125 C 38.542969 91.492188 38.914062 91.726562 39.195312 91.898438 C 39.382812 92.339844 39.570312 92.78125 39.757812 93.214844 C 39.523438 93.195312 39.199219 93.148438 38.996094 93.027344 C 38.792969 92.710938 38.5 92.300781 38.34375 91.957031 " fill-opacity="1" fill-rule="nonzero"/><path fill="#9cff1e" d="M 114.476562 60.839844 C 114.445312 60.769531 114.410156 60.691406 114.378906 60.617188 L 114.363281 59.917969 L 114.476562 60.839844 " fill-opacity="1" fill-rule="nonzero"/><path fill="#9cff1e" d="M 113.644531 65.722656 C 113.453125 65.308594 113.261719 64.886719 113.074219 64.457031 C 113.269531 63.808594 113.53125 62.945312 113.726562 62.292969 C 113.941406 61.949219 114.214844 61.476562 114.335938 61.089844 C 114.390625 61.214844 114.445312 61.335938 114.5 61.457031 C 114.503906 62.199219 114.5 63.195312 114.472656 63.941406 C 114.257812 64.488281 113.953125 65.222656 113.644531 65.722656 " fill-opacity="1" fill-rule="nonzero"/><g clip-path="url(#375128c868)"><path fill="#9cff1e" d="M 43.375 97.09375 C 43.089844 96.476562 42.804688 95.847656 42.519531 95.207031 C 42.976562 95.007812 43.582031 94.722656 44.011719 94.460938 C 44.859375 94.875 45.996094 95.421875 46.851562 95.828125 C 47.25 96.71875 47.648438 97.601562 48.046875 98.464844 C 47.460938 98.65625 46.675781 98.902344 46.070312 99.007812 C 45.253906 98.441406 44 97.863281 43.375 97.09375 " fill-opacity="1" fill-rule="nonzero"/></g><path fill="#9cff1e" d="M 39.667969 94.332031 C 39.53125 94.039062 39.394531 93.734375 39.257812 93.429688 C 39.507812 93.53125 39.855469 93.652344 40.125 93.65625 C 40.675781 94.078125 41.410156 94.636719 41.972656 95.039062 C 42.238281 95.636719 42.507812 96.222656 42.773438 96.800781 C 42.332031 96.695312 41.746094 96.539062 41.339844 96.339844 C 40.828125 95.75 40.074219 95.003906 39.667969 94.332031 " fill-opacity="1" fill-rule="nonzero"/><path fill="#9cff1e" d="M 38.585938 92.5 C 38.53125 92.382812 38.464844 92.230469 38.410156 92.113281 C 38.578125 92.410156 38.789062 92.820312 38.980469 93.105469 C 39.097656 93.363281 39.214844 93.621094 39.328125 93.871094 L 38.8125 92.996094 C 38.742188 92.847656 38.652344 92.648438 38.585938 92.5 " fill-opacity="1" fill-rule="nonzero"/><path fill="#9cff1e" d="M 114.921875 64.496094 C 114.8125 64.28125 114.703125 64.054688 114.589844 63.8125 L 114.585938 63.808594 C 114.582031 63.042969 114.570312 62.027344 114.527344 61.269531 L 114.363281 59.917969 L 114.792969 61.820312 C 114.863281 62.621094 114.945312 63.695312 114.921875 64.496094 " fill-opacity="1" fill-rule="nonzero"/><path fill="#9cff1e" d="M 114.800781 61.488281 C 114.773438 61.441406 114.746094 61.386719 114.714844 61.332031 L 114.363281 59.917969 L 114.800781 61.488281 " fill-opacity="1" fill-rule="nonzero"/><g clip-path="url(#fa990f7248)"><path fill="#9cff1e" d="M 115.027344 61.847656 C 115.011719 61.828125 114.992188 61.804688 114.972656 61.777344 L 114.363281 59.917969 L 115.027344 61.847656 " fill-opacity="1" fill-rule="nonzero"/></g><g fill="#312f30" fill-opacity="1"><g transform="translate(56.3734, 109.536471)"><g><path d="M 1.734375 -5.78125 L 1.734375 0 L 0.578125 0 L 0.578125 -5.78125 Z M 1.734375 -5.78125 "/></g></g></g><g fill="#312f30" fill-opacity="1"><g transform="translate(58.510323, 109.536471)"><g><path d="M 5.515625 0 L 4.359375 0 L 1.734375 -3.96875 L 1.734375 0 L 0.578125 0 L 0.578125 -5.78125 L 1.734375 -5.78125 L 4.359375 -1.8125 L 4.359375 -5.78125 L 5.515625 -5.78125 Z M 5.515625 0 "/></g></g></g><g fill="#312f30" fill-opacity="1"><g transform="translate(64.432489, 109.536471)"><g><path d="M 5.765625 -5.78125 L 3.640625 0 L 2.234375 0 L 0.109375 -5.78125 L 1.359375 -5.78125 L 2.953125 -1.1875 L 4.53125 -5.78125 Z M 5.765625 -5.78125 "/></g></g></g><g fill="#312f30" fill-opacity="1"><g transform="translate(70.155867, 109.536471)"><g><path d="M 1.734375 -4.84375 L 1.734375 -3.390625 L 3.671875 -3.390625 L 3.671875 -2.46875 L 1.734375 -2.46875 L 1.734375 -0.9375 L 3.921875 -0.9375 L 3.921875 0 L 0.578125 0 L 0.578125 -5.78125 L 3.921875 -5.78125 L 3.921875 -4.84375 Z M 1.734375 -4.84375 "/></g></g></g><g fill="#312f30" fill-opacity="1"><g transform="translate(74.396622, 109.536471)"><g><path d="M 2.5625 0.0625 C 2.164062 0.0625 1.804688 -0.00390625 1.484375 -0.140625 C 1.160156 -0.285156 0.90625 -0.488281 0.71875 -0.75 C 0.53125 -1.007812 0.429688 -1.316406 0.421875 -1.671875 L 1.671875 -1.671875 C 1.679688 -1.429688 1.757812 -1.238281 1.90625 -1.09375 C 2.0625 -0.957031 2.273438 -0.890625 2.546875 -0.890625 C 2.816406 -0.890625 3.023438 -0.953125 3.171875 -1.078125 C 3.328125 -1.210938 3.40625 -1.382812 3.40625 -1.59375 C 3.40625 -1.769531 3.351562 -1.910156 3.25 -2.015625 C 3.144531 -2.128906 3.015625 -2.21875 2.859375 -2.28125 C 2.703125 -2.34375 2.488281 -2.414062 2.21875 -2.5 C 1.832031 -2.601562 1.519531 -2.707031 1.28125 -2.8125 C 1.050781 -2.925781 0.851562 -3.09375 0.6875 -3.3125 C 0.519531 -3.53125 0.4375 -3.820312 0.4375 -4.1875 C 0.4375 -4.53125 0.519531 -4.828125 0.6875 -5.078125 C 0.863281 -5.328125 1.101562 -5.519531 1.40625 -5.65625 C 1.71875 -5.789062 2.070312 -5.859375 2.46875 -5.859375 C 3.070312 -5.859375 3.554688 -5.710938 3.921875 -5.421875 C 4.296875 -5.140625 4.503906 -4.738281 4.546875 -4.21875 L 3.265625 -4.21875 C 3.253906 -4.414062 3.171875 -4.578125 3.015625 -4.703125 C 2.859375 -4.835938 2.648438 -4.90625 2.390625 -4.90625 C 2.160156 -4.90625 1.976562 -4.84375 1.84375 -4.71875 C 1.707031 -4.601562 1.640625 -4.4375 1.640625 -4.21875 C 1.640625 -4.0625 1.691406 -3.929688 1.796875 -3.828125 C 1.898438 -3.734375 2.023438 -3.65625 2.171875 -3.59375 C 2.328125 -3.53125 2.546875 -3.457031 2.828125 -3.375 C 3.203125 -3.257812 3.503906 -3.144531 3.734375 -3.03125 C 3.972656 -2.925781 4.175781 -2.765625 4.34375 -2.546875 C 4.519531 -2.328125 4.609375 -2.035156 4.609375 -1.671875 C 4.609375 -1.359375 4.523438 -1.066406 4.359375 -0.796875 C 4.203125 -0.535156 3.96875 -0.328125 3.65625 -0.171875 C 3.351562 -0.015625 2.988281 0.0625 2.5625 0.0625 Z M 2.5625 0.0625 "/></g></g></g><g fill="#312f30" fill-opacity="1"><g transform="translate(79.275151, 109.536471)"><g><path d="M 4.5 -5.78125 L 4.5 -4.84375 L 2.96875 -4.84375 L 2.96875 0 L 1.8125 0 L 1.8125 -4.84375 L 0.265625 -4.84375 L 0.265625 -5.78125 Z M 4.5 -5.78125 "/></g></g></g><g fill="#312f30" fill-opacity="1"><g transform="translate(83.88863, 109.536471)"><g><path d="M 1.734375 -4.84375 L 1.734375 -3.390625 L 3.671875 -3.390625 L 3.671875 -2.46875 L 1.734375 -2.46875 L 1.734375 -0.9375 L 3.921875 -0.9375 L 3.921875 0 L 0.578125 0 L 0.578125 -5.78125 L 3.921875 -5.78125 L 3.921875 -4.84375 Z M 1.734375 -4.84375 "/></g></g></g><g fill="#312f30" fill-opacity="1"><g transform="translate(88.129384, 109.536471)"><g><path d="M 3.828125 0 L 1.734375 -2.578125 L 1.734375 0 L 0.578125 0 L 0.578125 -5.78125 L 1.734375 -5.78125 L 1.734375 -3.1875 L 3.828125 -5.78125 L 5.234375 -5.78125 L 2.84375 -2.921875 L 5.296875 0 Z M 3.828125 0 "/></g></g></g><g fill="#312f30" fill-opacity="1"><g transform="translate(64.888935, 114.98082)"><g><path d="M 1.234375 0.046875 C 1.015625 0.046875 0.804688 0.015625 0.609375 -0.046875 C 0.410156 -0.109375 0.253906 -0.191406 0.140625 -0.296875 L 0.3125 -0.6875 C 0.425781 -0.601562 0.566406 -0.53125 0.734375 -0.46875 C 0.898438 -0.414062 1.066406 -0.390625 1.234375 -0.390625 C 1.441406 -0.390625 1.59375 -0.421875 1.6875 -0.484375 C 1.789062 -0.554688 1.84375 -0.644531 1.84375 -0.75 C 1.84375 -0.832031 1.8125 -0.898438 1.75 -0.953125 C 1.695312 -1.003906 1.628906 -1.039062 1.546875 -1.0625 C 1.460938 -1.09375 1.34375 -1.128906 1.1875 -1.171875 C 0.976562 -1.222656 0.804688 -1.269531 0.671875 -1.3125 C 0.546875 -1.363281 0.4375 -1.441406 0.34375 -1.546875 C 0.25 -1.660156 0.203125 -1.804688 0.203125 -1.984375 C 0.203125 -2.140625 0.242188 -2.28125 0.328125 -2.40625 C 0.410156 -2.53125 0.535156 -2.628906 0.703125 -2.703125 C 0.867188 -2.773438 1.070312 -2.8125 1.3125 -2.8125 C 1.488281 -2.8125 1.65625 -2.789062 1.8125 -2.75 C 1.976562 -2.707031 2.125 -2.648438 2.25 -2.578125 L 2.078125 -2.171875 C 1.953125 -2.242188 1.820312 -2.296875 1.6875 -2.328125 C 1.5625 -2.367188 1.4375 -2.390625 1.3125 -2.390625 C 1.113281 -2.390625 0.960938 -2.351562 0.859375 -2.28125 C 0.753906 -2.21875 0.703125 -2.128906 0.703125 -2.015625 C 0.703125 -1.929688 0.726562 -1.863281 0.78125 -1.8125 C 0.84375 -1.769531 0.914062 -1.734375 1 -1.703125 C 1.09375 -1.671875 1.21875 -1.632812 1.375 -1.59375 C 1.570312 -1.550781 1.738281 -1.503906 1.875 -1.453125 C 2.007812 -1.398438 2.125 -1.320312 2.21875 -1.21875 C 2.3125 -1.113281 2.359375 -0.96875 2.359375 -0.78125 C 2.359375 -0.632812 2.316406 -0.5 2.234375 -0.375 C 2.148438 -0.25 2.019531 -0.144531 1.84375 -0.0625 C 1.675781 0.0078125 1.472656 0.046875 1.234375 0.046875 Z M 1.234375 0.046875 "/></g></g></g><g fill="#312f30" fill-opacity="1"><g transform="translate(69.232459, 114.98082)"><g><path d="M 1.515625 -2.78125 C 1.753906 -2.78125 1.960938 -2.738281 2.140625 -2.65625 C 2.316406 -2.582031 2.453125 -2.46875 2.546875 -2.3125 C 2.648438 -2.164062 2.703125 -1.992188 2.703125 -1.796875 C 2.703125 -1.585938 2.648438 -1.410156 2.546875 -1.265625 C 2.453125 -1.117188 2.316406 -1.003906 2.140625 -0.921875 C 1.960938 -0.835938 1.753906 -0.796875 1.515625 -0.796875 L 0.890625 -0.796875 L 0.890625 0 L 0.375 0 L 0.375 -2.78125 Z M 1.5 -1.234375 C 1.71875 -1.234375 1.882812 -1.28125 2 -1.375 C 2.113281 -1.476562 2.171875 -1.617188 2.171875 -1.796875 C 2.171875 -1.972656 2.113281 -2.109375 2 -2.203125 C 1.882812 -2.296875 1.71875 -2.34375 1.5 -2.34375 L 0.890625 -2.34375 L 0.890625 -1.234375 Z M 1.5 -1.234375 "/></g></g></g><g fill="#312f30" fill-opacity="1"><g transform="translate(73.960756, 114.98082)"><g><path d="M 2.171875 -0.640625 L 0.78125 -0.640625 L 0.515625 0 L -0.015625 0 L 1.234375 -2.78125 L 1.734375 -2.78125 L 3 0 L 2.453125 0 Z M 2 -1.046875 L 1.484375 -2.265625 L 0.953125 -1.046875 Z M 2 -1.046875 "/></g></g></g><g fill="#312f30" fill-opacity="1"><g transform="translate(78.780287, 114.98082)"><g><path d="M 0.375 -2.78125 L 0.890625 -2.78125 L 0.890625 0 L 0.375 0 Z M 0.375 -2.78125 "/></g></g></g><g fill="#312f30" fill-opacity="1"><g transform="translate(81.894137, 114.98082)"><g><path d="M 2.84375 -2.78125 L 2.84375 0 L 2.421875 0 L 0.890625 -1.875 L 0.890625 0 L 0.375 0 L 0.375 -2.78125 L 0.796875 -2.78125 L 2.328125 -0.890625 L 2.328125 -2.78125 Z M 2.84375 -2.78125 "/></g></g></g></svg>